<svg xmlns="http://www.w3.org/2000/svg" width="256" height="256" viewBox="0 0 256 256">
  <path d="M128 24c30 0 40 24 40 44" fill="none" stroke="#1d1128" stroke-width="6"/>
  <rect x="150" y="60" width="52" height="40" rx="8" fill="#ff8fb8" stroke="#1d1128" stroke-width="12" stroke-linejoin="round" stroke-linecap="round" stroke-width="9"/>
  <path d="M164 80h24" stroke="#1d1128" stroke-width="6" stroke-linecap="round"/>
  <path d="M78 74h100l-8 146c0 8-6 12-14 12H100c-8 0-14-4-14-12z" fill="#e9d8b6" stroke="#1d1128" stroke-width="12" stroke-linejoin="round" stroke-linecap="round"/>
  <path d="M78 74l18-20h64l18 20" fill="#d9c49a" stroke="#1d1128" stroke-width="12" stroke-linejoin="round" stroke-linecap="round"/>
  <g fill="#9a6b3e"><circle cx="112" cy="130" r="8"/><circle cx="142" cy="156" r="9"/><circle cx="118" cy="186" r="7"/><circle cx="150" cy="202" r="6"/><circle cx="104" cy="160" r="5"/></g>
  <path d="M96 96v30" stroke="#ffffff" stroke-width="10" stroke-linecap="round" opacity="0.7"/>
</svg>
