<svg xmlns="http://www.w3.org/2000/svg" width="256" height="256" viewBox="0 0 256 256">
  <g stroke="#1d1128" stroke-width="12" stroke-linejoin="round" stroke-linecap="round">
    <g transform="rotate(-18 80 150)"><path d="M34 110h92l-10 70c-2 10-10 16-20 16H64c-10 0-18-6-20-16z" fill="#fff6e6"/><path d="M126 124c20 0 20 30 0 32" fill="none" stroke-width="9"/></g>
    <g transform="rotate(18 176 150)"><path d="M130 110h92l-10 70c-2 10-10 16-20 16h-32c-10 0-18-6-20-16z" fill="#fff6e6"/><path d="M130 124c-20 0-20 30 0 32" fill="none" stroke-width="9"/></g>
  </g>
  <path d="M60 104l50-16M146 88l50 16" stroke="#ff5c8a" stroke-width="10" stroke-linecap="round"/>
  <g fill="#ffc93c" stroke="#1d1128" stroke-width="6" stroke-linejoin="round"><path d="M128 20l8 20 20 8-20 8-8 20-8-20-20-8 20-8z"/></g>
  <path d="M84 60l-12-14M172 60l12-14" stroke="#1d1128" stroke-width="9" stroke-linecap="round"/>
</svg>
